<?xml version="1.0" standalone="no"?>
<!DOCTYPE svg PUBLIC "-//W3C//DTD SVG 20010904//EN"
 "http://www.w3.org/TR/2001/REC-SVG-20010904/DTD/svg10.dtd">
<svg version="1.0" xmlns="http://www.w3.org/2000/svg"
 width="500.000000pt" height="500.000000pt" viewBox="0 0 500.000000 500.000000"
 preserveAspectRatio="xMidYMid meet">
<metadata>
Created by potrace 1.14, written by Peter Selinger 2001-2017
</metadata>
<g transform="translate(0.000000,500.000000) scale(0.100000,-0.100000)"
fill="#000000" stroke="none">
<path d="M465 4710 c-2 -3 -3 -946 -1 -2094 1 -1948 3 -2090 18 -2095 21 -7
4165 -7 4173 0 2 3 6 947 8 2097 2 1486 0 2092 -7 2093 -34 5 -4188 4 -4191
-1z m1228 -809 c158 -37 253 -139 265 -286 12 -151 -69 -264 -227 -320 -70
-24 -88 -26 -241 -30 -80 -2 -149 -4 -155 -4 -6 -1 -10 -79 -9 -216 0 -263 -4
-254 124 -258 85 -2 85 -2 88 -29 l3 -28 -285 0 -286 0 0 29 0 29 76 0 c57 0
80 4 92 16 15 15 17 65 17 494 0 262 -1 489 -3 505 -6 36 -30 48 -108 51 -71
3 -86 11 -74 41 7 20 15 20 341 19 204 -1 353 -6 382 -13z m713 -5 c5 -35 -5
-41 -76 -42 -75 -1 -100 -13 -100 -48 0 -12 31 -101 69 -197 37 -96 110 -281
162 -411 51 -131 96 -238 99 -238 4 0 39 89 78 198 39 108 85 235 102 282 116
314 122 341 76 388 -19 19 -35 24 -84 25 -55 2 -61 4 -65 25 -3 14 2 26 12 31
20 9 402 8 418 -2 6 -4 10 -15 8 -25 -2 -9 -4 -19 -4 -22 -1 -3 -15 -6 -32 -7
-39 -3 -70 -23 -104 -67 -21 -27 -195 -478 -310 -801 -92 -259 -102 -280 -133
-283 l-30 -3 -110 278 c-61 153 -157 397 -215 543 -117 297 -136 328 -205 333
-49 4 -63 15 -56 42 5 19 14 20 251 20 230 -1 246 -2 249 -19z m1727 14 c3 -3
8 -63 11 -135 4 -71 9 -169 12 -217 l5 -88 -30 0 c-25 0 -31 4 -31 23 0 12 -9
54 -19 93 -34 132 -92 220 -166 254 -54 24 -137 27 -159 4 -19 -18 -17 26 -18
-558 0 -392 2 -470 14 -482 10 -10 39 -15 96 -15 l82 -1 0 -29 0 -29 -275 0
-275 0 0 30 0 30 83 0 c51 0 88 5 95 12 9 9 12 137 12 517 0 574 5 541 -80
541 -72 0 -144 -42 -191 -110 -37 -54 -89 -204 -89 -255 0 -16 -7 -24 -26 -28
-35 -6 -38 6 -30 126 3 56 9 147 12 202 3 55 6 105 8 110 3 10 950 15 959 5z"/>
<path d="M1350 3842 l-24 -19 0 -249 -1 -249 115 -1 c190 -3 263 27 308 124
20 44 25 71 26 141 1 102 -18 162 -67 209 -47 46 -97 59 -223 61 -96 2 -114
-1 -134 -17z"/>
</g>
</svg>
