<?xml version="1.0" encoding="UTF-8"?>
<svg xmlns="http://www.w3.org/2000/svg" viewBox="0 0 142 30">
  <defs>
    <style>
      .cls-1 {
        isolation: isolate;
      }

      .cls-2 {
        fill: #231f20;
        stroke-width: 0px;
      }

      .cls-3 {
        mix-blend-mode: multiply;
      }
    </style>
  </defs>
  <g class="cls-1">
    <g id="Layer_1" data-name="Layer 1" class="cls-3">
      <g>
        <g>
          <path class="cls-2" d="M7.46,27.08c0,1.13-.84,1.78-2.51,1.78H1.88v-6.68h2.88c1.49,0,2.35.63,2.35,1.72,0,.76-.41,1.27-1.02,1.52.86.19,1.37.75,1.37,1.66ZM2.59,22.77v2.42h2.13c1.07,0,1.69-.41,1.69-1.21s-.62-1.21-1.69-1.21h-2.13ZM6.75,27.02c0-.87-.64-1.25-1.81-1.25h-2.36v2.51h2.36c1.17,0,1.81-.38,1.81-1.26Z"/>
          <path class="cls-2" d="M15.98,26.56v2.31h-.7v-2.31l-2.67-4.37h.75l2.29,3.75,2.29-3.75h.71l-2.67,4.37Z"/>
          <path class="cls-2" d="M36.34,28.86l-1.53-2.15c-.17.02-.34.03-.53.03h-1.79v2.12h-.71v-6.68h2.5c1.7,0,2.73.86,2.73,2.29,0,1.05-.55,1.78-1.53,2.1l1.63,2.29h-.77ZM36.31,24.48c0-1.07-.71-1.68-2.04-1.68h-1.77v3.35h1.77c1.34,0,2.04-.62,2.04-1.67Z"/>
          <path class="cls-2" d="M42.86,25.53c0-1.95,1.49-3.4,3.51-3.4s3.5,1.44,3.5,3.4-1.5,3.4-3.5,3.4-3.51-1.45-3.51-3.4ZM49.16,25.53c0-1.59-1.19-2.77-2.79-2.77s-2.81,1.17-2.81,2.77,1.2,2.77,2.81,2.77,2.79-1.17,2.79-2.77Z"/>
          <path class="cls-2" d="M56.22,22.19h2.72c2.14,0,3.58,1.37,3.58,3.34s-1.44,3.34-3.58,3.34h-2.72v-6.68ZM58.9,28.25c1.77,0,2.92-1.13,2.92-2.73s-1.14-2.73-2.92-2.73h-1.97v5.46h1.97Z"/>
          <path class="cls-2" d="M73.58,28.25v.61h-4.72v-6.68h4.58v.61h-3.87v2.37h3.45v.6h-3.45v2.48h4.02Z"/>
          <path class="cls-2" d="M79.38,25.53c0-1.95,1.49-3.4,3.51-3.4s3.5,1.44,3.5,3.4-1.5,3.4-3.5,3.4-3.51-1.45-3.51-3.4ZM85.68,25.53c0-1.59-1.19-2.77-2.79-2.77s-2.81,1.17-2.81,2.77,1.2,2.77,2.81,2.77,2.79-1.17,2.79-2.77Z"/>
          <path class="cls-2" d="M99.41,25.53c0-1.96,1.49-3.4,3.5-3.4.97,0,1.85.32,2.44.97l-.45.45c-.54-.55-1.21-.79-1.97-.79-1.61,0-2.82,1.18-2.82,2.77s1.21,2.77,2.82,2.77c.76,0,1.43-.24,1.97-.8l.45.45c-.59.65-1.47.98-2.45.98-2,0-3.49-1.44-3.49-3.4Z"/>
          <path class="cls-2" d="M111.63,22.19h.71v6.07h3.74v.61h-4.44v-6.68Z"/>
          <path class="cls-2" d="M121.83,26.01v-3.82h.71v3.8c0,1.58.74,2.31,2.04,2.31s2.05-.72,2.05-2.31v-3.8h.69v3.82c0,1.92-1.03,2.91-2.74,2.91s-2.75-.99-2.75-2.91Z"/>
          <path class="cls-2" d="M139.79,27.08c0,1.13-.84,1.78-2.51,1.78h-3.07v-6.68h2.88c1.49,0,2.35.63,2.35,1.72,0,.76-.41,1.27-1.02,1.52.86.19,1.37.75,1.37,1.66ZM134.92,22.77v2.42h2.13c1.07,0,1.69-.41,1.69-1.21s-.62-1.21-1.69-1.21h-2.13ZM139.08,27.02c0-.87-.64-1.25-1.81-1.25h-2.36v2.51h2.36c1.17,0,1.81-.38,1.81-1.26Z"/>
        </g>
        <g>
          <path class="cls-2" d="M13.64,6.25c0,3.2-2.37,5.17-6.19,5.17h-3.28v4.2H1.47V1.08h5.98c3.82,0,6.19,1.95,6.19,5.17ZM10.92,6.25c0-1.83-1.23-2.89-3.59-2.89h-3.16v5.78h3.16c2.37,0,3.59-1.06,3.59-2.89Z"/>
          <path class="cls-2" d="M34.17,15.62l-2.97-4.26c-.19.02-.37.02-.56.02h-3.28v4.24h-2.7V1.08h5.98c3.82,0,6.19,1.95,6.19,5.17,0,2.2-1.12,3.82-3.1,4.59l3.34,4.78h-2.91ZM30.51,3.36h-3.16v5.8h3.16c2.37,0,3.59-1.08,3.59-2.91s-1.23-2.89-3.59-2.89Z"/>
          <path class="cls-2" d="M48.15,1.08h2.7v14.54h-2.7V1.08Z"/>
          <path class="cls-2" d="M76.28,1.08l-6.34,14.54h-2.66l-6.36-14.54h2.93l4.84,11.22,4.88-11.22h2.7Z"/>
          <path class="cls-2" d="M95.1,12.26h-7.27l-1.43,3.37h-2.78l6.54-14.54h2.66l6.56,14.54h-2.83l-1.45-3.37ZM94.21,10.14l-2.74-6.36-2.72,6.36h5.46Z"/>
          <path class="cls-2" d="M111.76,3.36h-4.82V1.08h12.34v2.29h-4.82v12.26h-2.7V3.36Z"/>
          <path class="cls-2" d="M140.53,13.36v2.26h-10.91V1.08h10.62v2.26h-7.91v3.78h7.02v2.22h-7.02v4.01h8.21Z"/>
        </g>
      </g>
    </g>
  </g>
</svg>